<?xml version="1.0" encoding="UTF-8"?> <svg xmlns="http://www.w3.org/2000/svg" xmlns:xlink="http://www.w3.org/1999/xlink" width="114.649" height="63.865" viewBox="0 0 114.649 63.865"><defs><clipPath id="clip-path"><rect id="Rectangle_70" data-name="Rectangle 70" width="114.649" height="63.865" fill="none"></rect></clipPath></defs><g id="Group_95" data-name="Group 95" transform="translate(0 0)"><g id="Group_94" data-name="Group 94" transform="translate(0 0)" clip-path="url(#clip-path)"><path id="Path_130" data-name="Path 130" d="M16.3,27.154a6.135,6.135,0,0,1-2.744,2.537,9.139,9.139,0,0,1-3.834.775,9.249,9.249,0,0,1-4.274-.944A8.592,8.592,0,0,1,2.41,26.967a11.565,11.565,0,0,1-1.8-3.709A15.534,15.534,0,0,1,0,18.9a14.606,14.606,0,0,1,.608-4.212,10.923,10.923,0,0,1,1.8-3.582A8.978,8.978,0,0,1,5.4,8.613,8.927,8.927,0,0,1,9.6,7.669a8.521,8.521,0,0,1,3.666.817,6.414,6.414,0,0,1,2.746,2.41h.084V0h5.95V29.919H16.385V27.154Zm-.251-10.705a6.309,6.309,0,0,0-.86-2.179,4.828,4.828,0,0,0-1.572-1.53,4.6,4.6,0,0,0-2.43-.586,4.831,4.831,0,0,0-2.472.586A4.648,4.648,0,0,0,7.1,14.291a6.846,6.846,0,0,0-.88,2.2,11.951,11.951,0,0,0-.272,2.579,11.043,11.043,0,0,0,.292,2.513,6.876,6.876,0,0,0,.944,2.243A5.211,5.211,0,0,0,8.82,25.415a4.417,4.417,0,0,0,2.368.608,4.72,4.72,0,0,0,2.452-.586,4.468,4.468,0,0,0,1.572-1.572,7.067,7.067,0,0,0,.838-2.241,13.276,13.276,0,0,0,.251-2.6,12.944,12.944,0,0,0-.251-2.577" transform="translate(0 0)" fill="#fff"></path><path id="Path_131" data-name="Path 131" d="M15.406,0h5.95V4.9h-5.95Zm5.95,29.919h-5.95V8.255h5.95Z" transform="translate(10.323 0)" fill="#fff"></path><path id="Path_132" data-name="Path 132" d="M41.941,28.436a7.335,7.335,0,0,1-1.53,3.123,9.1,9.1,0,0,1-3.394,2.45,14.622,14.622,0,0,1-5.95,1.007,13.858,13.858,0,0,1-3.248-.4A10.325,10.325,0,0,1,24.8,33.379a7.382,7.382,0,0,1-2.263-2.158,6.241,6.241,0,0,1-1.027-3.163h5.909a3.384,3.384,0,0,0,1.635,2.325,5.845,5.845,0,0,0,2.807.651,4.325,4.325,0,0,0,3.666-1.508,5.92,5.92,0,0,0,1.111-3.813V22.863h-.083A5.892,5.892,0,0,1,33.811,25.4a8.891,8.891,0,0,1-3.749.817,9.478,9.478,0,0,1-4.19-.858,7.956,7.956,0,0,1-2.893-2.348,9.8,9.8,0,0,1-1.655-3.477,16.49,16.49,0,0,1-.523-4.212,13.534,13.534,0,0,1,.606-4.043,10.587,10.587,0,0,1,1.782-3.437A8.621,8.621,0,0,1,26.1,5.47a8.766,8.766,0,0,1,4-.878,8.374,8.374,0,0,1,3.751.8,6.486,6.486,0,0,1,2.7,2.68h.083V5.18H42.3V25.46a14.537,14.537,0,0,1-.356,2.976m-8.15-7.208a4.641,4.641,0,0,0,1.593-1.341,5.947,5.947,0,0,0,.942-1.906,7.878,7.878,0,0,0,.314-2.243,12.337,12.337,0,0,0-.251-2.535,6.373,6.373,0,0,0-.838-2.116A4.37,4.37,0,0,0,34,9.621a4.9,4.9,0,0,0-2.43-.544,4.371,4.371,0,0,0-2.158.5A4.551,4.551,0,0,0,27.9,10.942a5.694,5.694,0,0,0-.88,1.969,9.7,9.7,0,0,0-.272,2.325,11.956,11.956,0,0,0,.229,2.326,6.28,6.28,0,0,0,.8,2.074,4.651,4.651,0,0,0,1.488,1.508,4.2,4.2,0,0,0,2.3.588,4.729,4.729,0,0,0,2.221-.5" transform="translate(13.938 3.077)" fill="#fff"></path><path id="Path_133" data-name="Path 133" d="M36.056,0h5.95V4.9h-5.95Zm5.95,29.919h-5.95V8.255h5.95Z" transform="translate(24.16 0)" fill="#fff"></path><path id="Path_134" data-name="Path 134" d="M54.56,7.55v3.981H50.2V22.258a2.906,2.906,0,0,0,.5,2.011,2.91,2.91,0,0,0,2.012.5c.334,0,.655-.015.964-.043a8.33,8.33,0,0,0,.88-.125v4.609a14.049,14.049,0,0,1-1.678.167q-.922.043-1.8.043a17.2,17.2,0,0,1-2.62-.19,6.141,6.141,0,0,1-2.179-.733,3.855,3.855,0,0,1-1.486-1.55,5.527,5.527,0,0,1-.544-2.64V11.531H40.647V7.55h3.606v-6.5H50.2v6.5Z" transform="translate(27.237 0.705)" fill="#fff"></path><path id="Path_135" data-name="Path 135" d="M50.226,11.841a6.9,6.9,0,0,1,1.045-3.479,7.115,7.115,0,0,1,2.346-2.22,10.23,10.23,0,0,1,3.208-1.2,18.333,18.333,0,0,1,3.581-.356,24.263,24.263,0,0,1,3.31.23,10.236,10.236,0,0,1,3.061.9A6.06,6.06,0,0,1,69.04,7.587a5.219,5.219,0,0,1,.882,3.165V22.023a22.648,22.648,0,0,0,.165,2.809,5.058,5.058,0,0,0,.588,2.011H64.639a8.6,8.6,0,0,1-.272-1.027,9.324,9.324,0,0,1-.147-1.067A7.762,7.762,0,0,1,60.868,26.8a13.474,13.474,0,0,1-3.94.586,10.606,10.606,0,0,1-2.891-.377,6.66,6.66,0,0,1-2.348-1.172,5.476,5.476,0,0,1-1.57-2.012,6.789,6.789,0,0,1-.564-2.891A6.284,6.284,0,0,1,50.2,17.9a5.408,5.408,0,0,1,1.675-1.906,7.521,7.521,0,0,1,2.346-1.071,24.8,24.8,0,0,1,2.66-.564q1.34-.21,2.64-.336a15.73,15.73,0,0,0,2.3-.377,4.055,4.055,0,0,0,1.595-.733,1.63,1.63,0,0,0,.544-1.4,3.163,3.163,0,0,0-.316-1.528,2.3,2.3,0,0,0-.838-.88A3.318,3.318,0,0,0,61.6,8.678a9.889,9.889,0,0,0-1.488-.105,4.52,4.52,0,0,0-2.764.753,3.356,3.356,0,0,0-1.172,2.515Zm13.745,4.4a2.686,2.686,0,0,1-.945.523,9.548,9.548,0,0,1-1.216.316q-.649.125-1.361.209c-.476.057-.95.125-1.425.21a11,11,0,0,0-1.321.334,3.92,3.92,0,0,0-1.131.566,2.735,2.735,0,0,0-.777.9,2.906,2.906,0,0,0-.291,1.383,2.794,2.794,0,0,0,.291,1.341,2.253,2.253,0,0,0,.8.86,3.33,3.33,0,0,0,1.172.439,7.512,7.512,0,0,0,1.383.125,5.267,5.267,0,0,0,2.724-.586,3.936,3.936,0,0,0,1.426-1.4,4.516,4.516,0,0,0,.564-1.655,11.418,11.418,0,0,0,.107-1.341Z" transform="translate(33.206 3.076)" fill="#fff"></path><rect id="Rectangle_69" data-name="Rectangle 69" width="5.95" height="29.919" transform="translate(106.938)" fill="#fff"></rect><path id="Path_136" data-name="Path 136" d="M6.5,20V30.894h.084A6.36,6.36,0,0,1,9.54,28.442a10.013,10.013,0,0,1,3.876-.775,8.272,8.272,0,0,1,6.1,2.724,10.515,10.515,0,0,1,2.074,3.541,14.858,14.858,0,0,1,.8,5.135,14.831,14.831,0,0,1-.8,5.132,10.515,10.515,0,0,1-2.074,3.541,8.255,8.255,0,0,1-6.1,2.724,11.462,11.462,0,0,1-4.274-.753,5.424,5.424,0,0,1-2.849-2.559H6.209v2.767H.552V20ZM16.14,36.469a6.893,6.893,0,0,0-.922-2.221,4.819,4.819,0,0,0-1.572-1.53,4.355,4.355,0,0,0-2.283-.566,4.382,4.382,0,0,0-2.263.566,4.726,4.726,0,0,0-1.593,1.53,6.893,6.893,0,0,0-.922,2.221,11.575,11.575,0,0,0-.292,2.639,11.4,11.4,0,0,0,.292,2.6,6.893,6.893,0,0,0,.922,2.221A4.742,4.742,0,0,0,9.1,45.457a4.4,4.4,0,0,0,2.263.566,4.371,4.371,0,0,0,2.283-.566,4.836,4.836,0,0,0,1.572-1.53,6.893,6.893,0,0,0,.922-2.221,11.4,11.4,0,0,0,.294-2.6,11.574,11.574,0,0,0-.294-2.639" transform="translate(0.37 13.401)" fill="#fff"></path><path id="Path_137" data-name="Path 137" d="M20.712,25.179V29.2H20.8a7.476,7.476,0,0,1,2.767-3.33,7.917,7.917,0,0,1,1.969-.944,7.143,7.143,0,0,1,2.178-.336,4.677,4.677,0,0,1,1.3.209v5.533c-.279-.055-.615-.105-1.005-.147a10.7,10.7,0,0,0-1.132-.063,6.341,6.341,0,0,0-2.764.544,4.792,4.792,0,0,0-1.824,1.49,5.925,5.925,0,0,0-.984,2.2,11.876,11.876,0,0,0-.294,2.724v9.763h-5.95V25.179Z" transform="translate(10.088 16.478)" fill="#fff"></path><path id="Path_138" data-name="Path 138" d="M24.106,31.841a6.919,6.919,0,0,1,1.047-3.479,7.115,7.115,0,0,1,2.346-2.22,10.251,10.251,0,0,1,3.207-1.2,18.363,18.363,0,0,1,3.582-.356,24.263,24.263,0,0,1,3.31.23,10.211,10.211,0,0,1,3.06.9,6.039,6.039,0,0,1,2.263,1.864,5.219,5.219,0,0,1,.88,3.165V42.023a22.64,22.64,0,0,0,.167,2.809,5.058,5.058,0,0,0,.588,2.011H38.521a8.605,8.605,0,0,1-.272-1.027,8.968,8.968,0,0,1-.147-1.067A7.753,7.753,0,0,1,34.75,46.8a13.463,13.463,0,0,1-3.938.586,10.618,10.618,0,0,1-2.893-.377,6.624,6.624,0,0,1-2.346-1.172A5.481,5.481,0,0,1,24,43.825a6.788,6.788,0,0,1-.566-2.891,6.323,6.323,0,0,1,.65-3.038,5.428,5.428,0,0,1,1.677-1.906,7.5,7.5,0,0,1,2.346-1.071,24.884,24.884,0,0,1,2.66-.564q1.34-.21,2.64-.336a15.692,15.692,0,0,0,2.3-.377,4.025,4.025,0,0,0,1.593-.733,1.616,1.616,0,0,0,.544-1.4,3.164,3.164,0,0,0-.314-1.528,2.3,2.3,0,0,0-.838-.88,3.318,3.318,0,0,0-1.216-.419,9.9,9.9,0,0,0-1.488-.105,4.532,4.532,0,0,0-2.766.753,3.367,3.367,0,0,0-1.172,2.515Zm13.745,4.4a2.663,2.663,0,0,1-.944.523,9.668,9.668,0,0,1-1.214.316q-.651.125-1.363.209c-.476.057-.95.125-1.425.21a10.822,10.822,0,0,0-1.319.334,3.908,3.908,0,0,0-1.132.566,2.711,2.711,0,0,0-.775.9,2.9,2.9,0,0,0-.294,1.383,2.794,2.794,0,0,0,.294,1.341,2.245,2.245,0,0,0,.795.86,3.363,3.363,0,0,0,1.174.439,7.525,7.525,0,0,0,1.383.125,5.263,5.263,0,0,0,2.724-.586,3.918,3.918,0,0,0,1.425-1.4,4.489,4.489,0,0,0,.566-1.655,11.356,11.356,0,0,0,.105-1.341Z" transform="translate(15.703 16.478)" fill="#fff"></path><path id="Path_139" data-name="Path 139" d="M37.662,20h5.95v4.9h-5.95Zm5.95,29.919h-5.95V28.255h5.95Z" transform="translate(25.236 13.401)" fill="#fff"></path><path id="Path_140" data-name="Path 140" d="M48.864,25.179V28.2h.125a6.827,6.827,0,0,1,2.934-2.746,8.473,8.473,0,0,1,3.688-.86,10.1,10.1,0,0,1,3.916.65,5.829,5.829,0,0,1,2.412,1.8,7.028,7.028,0,0,1,1.236,2.807,17.594,17.594,0,0,1,.356,3.667V46.843H57.58V34.608a7.6,7.6,0,0,0-.838-4,3.245,3.245,0,0,0-2.974-1.319,4.12,4.12,0,0,0-3.521,1.445q-1.09,1.445-1.089,4.756V46.843h-5.95V25.179Z" transform="translate(28.952 16.478)" fill="#fff"></path><path id="Path_141" data-name="Path 141" d="M62.686,41.459a3.5,3.5,0,0,0,1.027,1.131,4.4,4.4,0,0,0,1.445.65,6.8,6.8,0,0,0,1.7.209,6.415,6.415,0,0,0,1.319-.145,4.545,4.545,0,0,0,1.258-.461A2.855,2.855,0,0,0,70.375,42a2.2,2.2,0,0,0,.377-1.321q0-1.34-1.78-2.011a35.543,35.543,0,0,0-4.967-1.341q-1.3-.293-2.535-.691a8.7,8.7,0,0,1-2.2-1.047,5.106,5.106,0,0,1-1.551-1.635,4.629,4.629,0,0,1-.585-2.41,6.523,6.523,0,0,1,.817-3.435A6.034,6.034,0,0,1,60.109,26a9.462,9.462,0,0,1,3.018-1.089,18.513,18.513,0,0,1,3.435-.316,17.277,17.277,0,0,1,3.415.336,9.088,9.088,0,0,1,2.954,1.131,6.816,6.816,0,0,1,2.158,2.118,7.1,7.1,0,0,1,1.027,3.33H70.458a2.607,2.607,0,0,0-1.3-2.326,5.955,5.955,0,0,0-2.766-.606,10.8,10.8,0,0,0-1.091.062,3.693,3.693,0,0,0-1.067.272,2.191,2.191,0,0,0-.818.61,1.6,1.6,0,0,0-.336,1.067,1.633,1.633,0,0,0,.588,1.3,4.548,4.548,0,0,0,1.53.817,19.476,19.476,0,0,0,2.158.566c.81.165,1.633.349,2.472.544a25.1,25.1,0,0,1,2.535.711,8.367,8.367,0,0,1,2.2,1.111,5.363,5.363,0,0,1,1.551,1.719,5.043,5.043,0,0,1,.588,2.535A6.584,6.584,0,0,1,73.6,45.8a9.188,9.188,0,0,1-3.163,1.236,18.468,18.468,0,0,1-3.624.356,17.881,17.881,0,0,1-3.688-.377,9.677,9.677,0,0,1-3.207-1.258,7.147,7.147,0,0,1-2.3-2.325A7.267,7.267,0,0,1,56.63,39.8h5.658a3.26,3.26,0,0,0,.4,1.655" transform="translate(37.946 16.478)" fill="#fff"></path></g></g></svg> 